# xmcd
#
# Track frame offsets:
#	150
#	14775
#	32175
#	44400
#	60753
#	74477
#	90378
#	106430
#	123605
#	140405
#	160733
#
# Disc length: 2370 seconds
#
# Revision: 8
# Processed by: cddbd v1.5.2PL0 Copyright (c) Steve Scherf et al.
# Submitted via: EasyCDDAExtractor 15.3.0.1
#
DISCID=9609400b
DTITLE=Ana Barbara - La Trampa
DYEAR=1995
DGENRE=Latin
TTITLE0=La Trampa
TTITLE1=Olvidame Si Puedes
TTITLE2=Me Asusta Pero Me Gusta
TTITLE3=Sueños De Maria
TTITLE4=Amor De Luna
TTITLE5=Recuerdas, Mi Amor
TTITLE6=No Se Que Voy A Hacer
TTITLE7=Salte De Mi
TTITLE8=Disco Cumbia
TTITLE9=Otro Corazon
TTITLE10=Sin Mentiras
EXTD=
EXTT0=
EXTT1=
EXTT2=
EXTT3=
EXTT4=
EXTT5=
EXTT6=
EXTT7=
EXTT8=
EXTT9=
EXTT10=
PLAYORDER=
